<?xml version="1.0" standalone="no"?><!DOCTYPE svg PUBLIC "-//W3C//DTD SVG 1.1//EN" "http://www.w3.org/Graphics/SVG/1.1/DTD/svg11.dtd"><svg t="1601264613723" class="icon" viewBox="0 0 1024 1024" version="1.1" xmlns="http://www.w3.org/2000/svg" p-id="1305" width="128" height="128" xmlns:xlink="http://www.w3.org/1999/xlink"><defs><style type="text/css"></style></defs><path d="M764.586667 758.852267H238.7968a31.5392 31.5392 0 0 1-31.5392-31.5392v-395.946667a228.283733 228.283733 0 0 1 228.010667-228.010667h132.983466a228.283733 228.283733 0 0 1 228.010667 228.010667v395.946667A31.5392 31.5392 0 0 1 764.586667 758.852267z m-502.852267-54.613334h479.914667v-372.736a173.533867 173.533867 0 0 0-173.397334-173.397333h-132.983466a173.533867 173.533867 0 0 0-173.397334 173.397333z" fill="#0073FF" p-id="1306"></path><path d="M630.647467 920.507733H372.872533a76.5952 76.5952 0 0 1-76.458666-76.458666v-112.503467a27.306667 27.306667 0 0 1 27.306666-27.306667h356.078934a27.306667 27.306667 0 0 1 27.306666 27.306667v112.366933a76.5952 76.5952 0 0 1-76.458666 76.5952zM350.890667 758.852267v85.060266a21.981867 21.981867 0 0 0 21.845333 21.845334h257.911467a21.981867 21.981867 0 0 0 21.845333-21.845334v-85.060266zM566.203733 437.998933h-33.450666a8.6016 8.6016 0 0 1-8.328534-9.557333l10.922667-87.381333a14.609067 14.609067 0 0 0-25.3952-11.4688L426.530133 423.253333a14.609067 14.609067 0 0 0 10.376534 23.7568h33.450666a8.6016 8.6016 0 0 1 8.328534 9.557334l-10.922667 87.381333a14.609067 14.609067 0 0 0 25.3952 11.4688l83.421867-93.525333a14.609067 14.609067 0 0 0-10.376534-23.893334z" fill="#0073FF" p-id="1307"></path></svg>