<?xml version="1.0" standalone="no"?><!DOCTYPE svg PUBLIC "-//W3C//DTD SVG 1.1//EN" "http://www.w3.org/Graphics/SVG/1.1/DTD/svg11.dtd"><svg t="1554348234906" class="icon" style="" viewBox="0 0 1024 1024" version="1.1" xmlns="http://www.w3.org/2000/svg" p-id="1516" xmlns:xlink="http://www.w3.org/1999/xlink" width="164" height="164"><defs><style type="text/css"></style></defs><path d="M512.1 512.4m-448 0a448 448 0 1 0 896 0 448 448 0 1 0-896 0Z" fill="#00A99D" p-id="1517"></path><path d="M668.3 815.5l-21.4 3c-48.8 6.9-98.4 6.9-147.2 0l-21.4-3c-14.2-2-24.7-14.1-24.7-28.4V367.8c0-14.5 10.8-26.7 25.1-28.5l29-3.7c43.5-5.5 87.6-5.5 131.2 0l29 3.7c14.4 1.8 25.1 14 25.1 28.5V787c0 14.4-10.5 26.5-24.7 28.5z" fill="#FFFFFF" p-id="1518"></path><path d="M631.8 366.1h-117c-7 0-12.7-5.7-12.7-12.7V213.8c0-7 5.7-12.7 12.7-12.7h116.9c7 0 12.7 5.7 12.7 12.7v139.6c0.1 7-5.6 12.7-12.6 12.7z" fill="#FFFFFF" p-id="1519"></path><path d="M521.4 261.4h35.8v25.9h-35.8zM589.3 261.4h35.8v25.9h-35.8z" fill="#00A99D" p-id="1520"></path><path d="M687.6 622.7c3.3 81.7-62 149.7-143.7 149.7-4 0-7.8-1.6-10.6-4.4L158 395c-8.5-8.4-8.5-22.1 0-30.5l119.5-119.3c8.4-8.4 22-8.4 30.4 0l379.7 377.5z" fill="#A4E0D7" p-id="1521"></path><path d="M573.3 655.2m-69.2 0a69.2 69.2 0 1 0 138.4 0 69.2 69.2 0 1 0-138.4 0Z" fill="#00A99D" p-id="1522"></path></svg>